# Blender v2.81 (sub 16) OBJ File: 'CG-Scene.blend'
# www.blender.org
mtllib box-only.mtl
o tallBox_Cube.002
v -0.368342 -0.001363 0.115575
v -0.368342 1.172996 0.115575
v -0.664049 -0.001363 -0.415826
v -0.664049 1.172996 -0.415826
v 0.143645 -0.001363 -0.169329
v 0.143645 1.172996 -0.169329
v -0.152061 -0.001363 -0.700729
v -0.152061 1.172996 -0.700729
vt 0.625000 0.000000
vt 0.375000 0.250000
vt 0.375000 0.000000
vt 0.625000 0.250000
vt 0.375000 0.500000
vt 0.625000 0.500000
vt 0.375000 0.750000
vt 0.625000 0.750000
vt 0.375000 1.000000
vt 0.125000 0.750000
vt 0.125000 0.500000
vt 0.875000 0.500000
vt 0.625000 1.000000
vt 0.875000 0.750000
vn -0.2238 0.5773 0.7852
vn -0.7852 -0.5773 -0.2238
vn -0.2238 -0.5773 0.7852
vn -0.7852 0.5773 -0.2238
vn 0.2238 -0.5773 -0.7852
vn 0.2238 0.5773 -0.7852
vn 0.7852 -0.5773 0.2238
vn 0.7852 0.5773 0.2238
usemtl Default_OBJ
s 1
f 2/1/1 3/2/2 1/3/3
f 4/4/4 7/5/5 3/2/2
f 8/6/6 5/7/7 7/5/5
f 6/8/8 1/9/3 5/7/7
f 7/5/5 1/10/3 3/11/2
f 4/12/4 6/8/8 8/6/6
f 2/1/1 4/4/4 3/2/2
f 4/4/4 8/6/6 7/5/5
f 8/6/6 6/8/8 5/7/7
f 6/8/8 2/13/1 1/9/3
f 7/5/5 5/7/7 1/10/3
f 4/12/4 2/14/1 6/8/8
