# Blender v2.81 (sub 16) OBJ File: 'CG-Scene.blend'
# www.blender.org
mtllib box-only.mtl
o tallBox_Cube.002
v -0.448458 -0.001363 0.085367
v -0.448458 1.172996 0.085367
v -0.630882 -0.001363 -0.494762
v -0.630882 1.172996 -0.494762
v 0.110478 -0.001363 -0.090393
v 0.110478 1.172996 -0.090393
v -0.071946 -0.001363 -0.670522
v -0.071946 1.172996 -0.670522
vt 0.625000 0.000000
vt 0.375000 0.250000
vt 0.375000 0.000000
vt 0.625000 0.250000
vt 0.375000 0.500000
vt 0.625000 0.500000
vt 0.375000 0.750000
vt 0.625000 0.750000
vt 0.375000 1.000000
vt 0.125000 0.750000
vt 0.125000 0.500000
vt 0.875000 0.500000
vt 0.625000 1.000000
vt 0.875000 0.750000
vn -0.3775 0.5773 0.7239
vn -0.7239 -0.5773 -0.3775
vn -0.3775 -0.5773 0.7239
vn -0.7239 0.5773 -0.3775
vn 0.3775 -0.5773 -0.7239
vn 0.3775 0.5773 -0.7239
vn 0.7239 -0.5773 0.3775
vn 0.7239 0.5773 0.3775
usemtl Default_OBJ
s 1
f 2/1/1 3/2/2 1/3/3
f 4/4/4 7/5/5 3/2/2
f 8/6/6 5/7/7 7/5/5
f 6/8/8 1/9/3 5/7/7
f 7/5/5 1/10/3 3/11/2
f 4/12/4 6/8/8 8/6/6
f 2/1/1 4/4/4 3/2/2
f 4/4/4 8/6/6 7/5/5
f 8/6/6 6/8/8 5/7/7
f 6/8/8 2/13/1 1/9/3
f 7/5/5 5/7/7 1/10/3
f 4/12/4 2/14/1 6/8/8
