# Blender v2.81 (sub 16) OBJ File: 'CG-Scene.blend'
# www.blender.org
mtllib flipped-box.mtl
o Walls_Cube.001
v -1.000000 0.000000 1.000000
v -1.000000 2.000000 1.000000
v -1.000000 0.000000 -1.000000
v -1.000000 2.000000 -1.000000
v 1.000000 0.000000 1.000000
v 1.000000 2.000000 1.000000
v 1.000000 0.000000 -1.000000
v 1.000000 2.000000 -1.000000
vt 0.375000 0.500000
vt 0.625000 0.250000
vt 0.375000 0.250000
vt 0.625000 0.750000
vt 0.875000 0.500000
vt 0.625000 0.500000
vt 0.875000 0.750000
vt 0.375000 0.750000
vt 0.625000 0.000000
vt 0.375000 0.000000
vt 0.125000 0.750000
vt 0.125000 0.500000
vn -0.5773 0.5773 0.5773
vn 0.5773 -0.5773 0.5773
vn 0.5773 0.5773 0.5773
vn -0.7071 -0.7071 0.0000
vn -0.5773 -0.5773 0.5773
vn 0.7071 -0.7071 0.0000
vn -0.7071 0.7071 0.0000
vn 0.7071 0.7071 0.0000
usemtl Default_OBJ
s 1
f 7/1/1 4/2/2 3/3/3
f 6/4/4 4/5/2 8/6/5
f 7/1/1 8/6/5 4/2/2
f 6/4/4 2/7/6 4/5/2
# usemtl WallLeft
# f 5/8/7 8/6/5 7/1/1
# f 5/8/7 6/4/4 8/6/5
# usemtl WallRight
# f 3/3/3 2/9/6 1/10/8
# f 3/3/3 4/2/2 2/9/6
# usemtl WallFloor
# f 1/11/8 7/1/1 3/12/3
# f 1/11/8 5/8/7 7/1/1
